<svg version="1" xmlns="http://www.w3.org/2000/svg" width="560" height="560" viewBox="0 0 420.000000 420.000000"><path d="M285.4 31.5c-.4.8-1.3 1.5-2.1 1.5s-1.2-.4-.9-.9c.8-1.2-2.5-.8-5.1.7-1.6.9-2.4.9-2.9 0-.4-.6-.3-.8.4-.4.6.3 1.3.3 1.6-.2.2-.4-.4-.9-1.5-.9-1.1-.1-1.9.5-1.9 1.4 0 1.4-.3 1.3-2.5-.1-2.3-1.5-2.7-1.5-4.9-.1-1.8 1.2-2.6 1.3-3.2.4-.5-.8-.3-1 .7-.4 1.2.7 1.2.5.1-.6-1.1-1.2-1.4-1.2-2.2.1-.8 1.3-1.3 1.3-3 .2-1.6-1-2.5-1-3.5-.2-.8.7-1.8.9-2.4.6-.5-.3-1.1.1-1.5.9-.3.9-1.2 1.2-2.3.8-1.7-.7-1.7-.6 0 1.1 1 1 1.6 2.5 1.3 3.2-.3.7 0 1.6.6 2 .7.4.2 1.4-1.3 2.6-1.3 1-1.8 1.7-1 1.6 1.1-.2 1.4 1.1 1.5 5.4.1 3.1.5 6 .9 6.4.4.5-.2 1.6-1.5 2.6s-1.7 1.7-.9 1.6c1.1-.2 1.4 1.1 1.5 5.4.1 3.1.5 6 .9 6.4.4.5-.2 1.6-1.5 2.6s-1.7 1.7-.9 1.6c1.1-.2 1.4 1.1 1.5 5.4.1 3.1.5 6 .9 6.4.4.5-.2 1.6-1.5 2.6s-1.7 1.7-.9 1.6c1.1-.2 1.4 1.1 1.5 5.4.1 3.1.5 6 .9 6.4.4.5-.2 1.6-1.5 2.6s-1.7 1.7-.9 1.6c1.1-.2 1.4 1.1 1.5 5.4.1 3.1.5 6 .9 6.4.4.5-.2 1.6-1.5 2.6s-1.7 1.7-.9 1.6c1.1-.2 1.4 1.1 1.5 5.4.1 3.1.5 6 .9 6.4.4.5-.2 1.6-1.5 2.6s-1.7 1.7-.9 1.6c1.1-.2 1.4 1.1 1.5 5.4.1 3.1.5 6 .9 6.4.4.5-.2 1.6-1.5 2.6s-1.7 1.7-.9 1.6c1.1-.2 1.4 1.1 1.5 5.4.1 3.1.5 6 .9 6.4.4.5-.2 1.6-1.5 2.6s-1.7 1.7-.9 1.6c1.1-.2 1.4 1.1 1.5 5.4.1 3.1.5 6 .9 6.4.4.5-.2 1.6-1.5 2.6s-1.7 1.7-.9 1.6c1.1-.2 1.4 1.1 1.5 5.4.1 3.1.5 6 .9 6.4.4.5-.2 1.6-1.5 2.6s-1.7 1.7-.9 1.6c1.1-.2 1.4 1.1 1.5 5.4.1 3.1.5 6 .9 6.4.4.5-.2 1.6-1.5 2.6s-1.7 1.7-.9 1.6c1.1-.2 1.4 1.1 1.5 5.4.1 3.1.5 6 .9 6.4.4.5-.2 1.6-1.5 2.6s-1.7 1.7-.9 1.6c1.1-.2 1.4 1.1 1.5 5.4.1 3.1.5 6 .9 6.4.4.5-.2 1.6-1.5 2.6s-1.7 1.7-.9 1.6c.7-.2 1.6.3 1.8 1 .3.6-.1 1-.9.9-.7-.2-1-.2-.5 0 .4.3.4 1 .1 1.5-.4.7-.2.8.4.4.7-.4 1.2-.2 1.2.3 0 .6-.8 1.1-1.7 1.2-1.5 0-1.5.2-.3.7.8.4 1.5 1.8 1.5 3.2 0 1.4.5 2.9 1 3.3.6.5.4.7-.5.4-.8-.2-1.4-1.1-1.4-2 .1-.9-.2-1.4-.6-1.2-1.2.7-.8 4.4.3 4.2.5-.1 1.2.4 1.5 1.2.3.9 0 1.1-.8.6-.9-.6-.9-.2.1 1.6 1.2 2.3 1.1 2.3-.7.9s-1.8-1.4-.1.6c.9 1.1 1.7 2.3 1.7 2.7 0 .3-.8.4-1.7.1-1.7-.5-1.7-.5-.1.6 1 .6 1.5 1.7 1.1 2.7-.5 1.2-.3 1.4.7.8.9-.5 1.1-.4.6.4-.4.6-1.1.9-1.6.6-.5-.3-1.2 0-1.6.6-.4.8-.3.9.4.5.8-.5 1.2.3 1.2 2.3 0 1.6.3 3.6.6 4.5.3.9.1 1.6-.6 1.6-.6 0-.9-.4-.5-.9.3-.5.2-1.2-.3-1.5-1.8-1.1-.8 2.9 1.2 4.6 1.3 1.2 1.6 1.7.6 1.6-.8-.2-1.5.3-1.6.9-.1.7-.3 1.6-.4 2-.1.5-.2 1.2-.1 1.6.1.5-.3.6-.9.2-.8-.5-.8-1.1-.1-1.9.8-.9.7-1.3-.2-1.3-.7 0-1.3 1.2-1.2 2.8 0 1.5.3 2.5.7 2.3.4-.3.6.5.5 1.6-.1 1-.7 2.2-1.5 2.5-1 .3-1 1-.2 2.5.9 1.7.7 2.2-1.5 3-2.2.8-2.4 1.3-1.5 2.9.8 1.6.6 2.3-1.1 3.5-1.2.8-1.8 1.9-1.5 2.5.4.6-.2.8-1.5.6-1.7-.4-1.9-.2-.8 1.1 1 1.2.9 1.3-.6.8-1.2-.5-1.6-.4-1.2.3.4.6-.2 1.8-1.3 2.8-1.1 1-1.8 2.1-1.5 2.5.2.4-.3.7-1.1.7-1.1 0-.9-.6.7-2.3 1.6-1.7 1.8-2.4.7-3-.7-.4-1-.4-.6.1 1 1.1-1.1 3.7-2.3 2.9-.5-.3-.9-.2-.8.3.5 2.7-.1 3.5-1.6 2.3-1.3-1.1-1.4-1-.9.4.3.9 1.1 1.6 1.7 1.6.6 0 .7.3.4.6-.4.4-1.3.1-2.2-.6-1.2-1-1.6-.9-2.1.4-.6 1.5-.8 1.5-2-.1-1.3-1.7-1.4-1.7-.7.1.4 1.3.3 1.7-.5 1.2-.6-.3-1.4-.1-1.8.5-.4.8-.3.9.4.5s1.2-.2 1.2.3c0 1.5-2.7 1.4-3.3-.2-.3-.6-.6-.1-.7 1.3-.1 1.4-.4 1.9-.7 1.2-.4-1-.8-1-1.9-.1-.9.7-1.4.8-1.4.1 0-.6-.8-.9-1.7-.7-1 .2-2.2.4-2.6.4-.5.1-.6.5-.2 1 .3.5.1 1.2-.4 1.5-.5.4-1.2.2-1.6-.4-.3-.5-1.5-1.5-2.7-2.1-1.1-.6-1.8-.7-1.4-.1.3.5-.4 1.8-1.7 2.8-1.8 1.6-1.9 1.6-.8.1.8-1 .9-1.7.3-1.7-.6 0-1.6.8-2.2 1.7-1.1 1.7-1.1 1.7-.6 0 .4-1.2.2-1.7-.6-1.4-.7.2-2.2-.3-3.2-1.2-1.1-.9-1.6-1.1-1.3-.4.4.6.3 1.4-.3 1.8-.5.3-1-.1-1-1s-.4-1.4-1-1c-.5.3-.6 1.3-.3 2.3.4 1.1-.2.8-1.6-.8-1.6-1.8-2.4-2.1-2.8-1.2-.4 1-.8 1-1.9.1-.7-.6-2.1-.8-3-.5-1.1.4-1.5.2-1.1-.8.4-1-.1-1.3-1.9-1.1-1.3.1-2.7-.2-3.1-.8-.3-.6-.1-.7.5-.3.8.5 1 .2.6-.9-.6-1.4-.8-1.4-2 .2-1.3 1.7-1.4 1.7-2-.5-.3-1.2-1.1-2.2-1.6-2.2s-.6-.5-.2-1.2c.4-.7.3-.8-.4-.4s-2 .2-2.9-.3c-1-.6-1.4-1.1-1-1.1.5 0 .1-.7-.7-1.6-.9-.8-1.3-2-1-2.6.4-.7.2-.8-.5-.4-.6.4-.9 1.1-.6 1.6.3.5.1 1.1-.4 1.5-.6.3-.8-.3-.6-1.3.4-2.2-2.3-8.2-3.8-8.2-.5 0-.2 1 .9 2.2l1.9 2.3-2.2-1.9c-1.9-1.6-2.1-2.2-1-3.4 1-1.3.9-1.5-.3-1-1 .4-1.6 0-1.7-1.1-.3-4.4-.8-6.1-1.6-6.1-.5 0-.3-.8.4-1.7 1-1.1 1-1.4.2-.9-.9.5-1.3 0-1.3-1.4 0-1.2-.4-1.9-.8-1.6-.8.4-1.2-2.2-1.2-7.3 0-1.3.6-3.1 1.2-4 1-1.2.8-1.2-.8.2-2 1.6-2.1 1.6-1.9-.3.1-1.1.4-2.2.8-2.6.3-.4 0-1.3-.8-2.1-1.1-1-1.2-1.9-.5-3.3 1.3-2.4 1.3-3.3 0-2.5-.6.3-.7-.1-.4-.9.3-.9 1.1-1.3 1.8-1 .6.3 0-.4-1.3-1.5-1.8-1.6-2-2.1-.7-2.1.9 0 1.6-.4 1.6-.9s-.8-.8-1.7-.7c-1.1 0-1.7-.5-1.5-1.4.1-.9-.7-.4-1.9 1-1.1 1.4-1.8 1.9-1.4 1.3.4-.9.1-1.1-.9-.7-.9.3-1.3 1.1-1 1.8.3.6-.4 0-1.7-1.4l-2.2-2.5.8 2.5c.6 2 .5 2.3-.6 1.2-1.6-1.5-3.3-1.6-2.3 0 .4.7.3.8-.5.4-2.2-1.4-6.3-1.4-5.8-.1.3.6-.1 1.2-.9 1.2s-1.4-.7-1.5-1.6c0-1-.2-1.2-.6-.4-.2.7-.9 1.3-1.4 1.3-.6 0-.7-.6-.3-1.3.5-.7.1-.7-1 .2-1.5 1.3-1.9 1.3-2.7 0-.7-1.1-.9-1.1-.9 0 0 .7-.6 1.1-1.4.8-1-.4-1.3-.1-1 .7.3.8 0 1.7-.7 2.2-.8.4-1 .3-.5-.4.9-1.5.1-1.5-2.7 0-2.1 1.1-2.1 1-.7-.7 1.3-1.7 1.3-1.8 0-1-.8.6-1.8 1-2.2 1-.3 0-1 .4-1.5.9s-.3.6.5.2c.6-.4 1.2-.3 1.2.3 0 .5-.6 1.1-1.2 1.4-1 .3-1 .9 0 2.7 1 1.6 1 2 .1 1.4-.9-.5-1-.2-.6.9.4 1.2.1 1.7-1.1 1.7-1.3 0-1.2.3.6 1.6 2.2 1.5 2.2 3.4-.1 3.4-.7 0-.6-.4.3-1 .8-.5 1-1 .4-1s-1.7.7-2.4 1.6c-.8.8-.9 1.4-.4 1.3 1.9-.3 3.4.1 3.4 1.2 0 .5-.5.7-1.2.3-.7-.5-.8-.3-.3.6.4.7.2 1.5-.5 2-.8.5-.7.9.5 1.3.9.4 1.3.3 1-.2-.3-.5-.1-1.2.4-1.5 1.5-1 .6 2.3-1.2 4.4-1.7 2.1-.9 2.8 1 .9 1.1-1.1 1.3.5 1.3 10.6 0 3.4.4 4.5 1.6 4.5.7 0 1.6.5 2 1.2.4.7.3.8-.4.4s-1.2-.1-1.2.8c0 .8.5 1.8 1 2.1.6.3 1 1.7 1 3.1 0 1.8.4 2.3 1.3 1.7.6-.4.4.6-.7 2.1-1 1.6-1.3 2.5-.7 2.2.6-.4 1.4 0 1.7.8.3.9 1.4 1.6 2.3 1.7 1.2 0 1.2.2-.4.9-1.9.8-1.9.9.3.9 1.2.1 2.2.6 2.2 1.2 0 .5-.4.7-1 .4-.5-.3-1 .1-1 1s.4 1.3 1 1c.6-.3 1 .1 1 1s.5 1.3 1.1.9c.8-.4.8-.1.1 1.3-.9 1.5-.8 2 .3 2 .8 0 1.1-.5.8-1-.3-.6-.1-.7.6-.3.9.6.9 1.1-.1 2.4-1 1.2-1 1.4 0 .8.6-.4 1.2-.3 1.2.1 0 .5.7 1.8 1.5 2.9 1.5 1.9 1.5 1.9.9-.1-.3-1.2.1-.9 1.1.7.8 1.6 2.3 2.8 3.3 2.9 1.4 0 1.4.2-.2.8-1.4.5-1.6 1-.8 1.5.7.4 1.6.4 2.2.1.6-.3.7.1.4.9-.5 1.4.4 2 2.7 1.8.4-.1 1.7 1.1 3 2.6 2.2 2.5 2.2 2.6.2.8-1.3-1.1-2.3-1.4-2.3-.9 0 .6.7 1.4 1.6 1.7.8.3 1.3 1 1 1.5-.3.5.3.7 1.4.4 1.3-.3 2.9.5 5 2.5 1.6 1.7 3 2.6 3 2.2 0-.5 1 .1 2.3 1.3 1.3 1.2 2.1 2.6 1.9 3.1-.3.5 0 .6.7.2.6-.4.9-1.1.6-1.6-.4-.7 2.4-.6 3.3 0 .1.2.6.3 1.2.4.5 0 1.4.6 2.1 1.3.6.6 1.9.9 2.8.6 1.4-.4 1.4-.3.1.7-1.3 1-1.1 1.1.7.7 1.6-.4 2-.1 1.6 1.1-.5 1.1-.3 1.3.8.6 2-1.2 3.9-1.4 3.9-.3 0 .6.9.5 2.1-.2 1.5-.8 1.9-.8 1.5 0-.4.6 0 1.1.9 1.1 1 0 1.4.5.9 1.2-.5 1-.4 1 .6.1.9-.9 1.9-.9 3.2-.2 1.1.6 2.4.8 3.1.6.7-.2 1.8.3 2.5 1.2 1.1 1.3 1.3 1.3.9.1s.5-1.5 4.2-1.3c2.5.1 4.8.3 5.1.4.3.1.9.1 1.4 0 .5-.1.6.6.2 1.6-.4 1.2.1.9 1.4-.7 1.1-1.4 1.8-1.8 1.5-.9-.4 1 0 1.6 1 1.6.9 0 1.4-.6 1.1-1.4-.7-1.7-.1-1.6 1.9.3 1.3 1.4 1.9 1.4 2.8.4.9-1 .9-1.1-.2-.5-.9.5-1.2.4-.8-.3.4-.5 1.6-.8 2.7-.5 1.1.3 2.7-.1 3.6-.8 1.5-1.2 1.6-1.1.9 1-.6 2.1-.5 2.2.8 1 .8-.8 1.3-1.7 1-2.2-.2-.4.3-.7 1.2-.7.9 0 1.3.5.9 1.1-.4.7-.1 1 .7.7.8-.3 1.4-1 1.4-1.6 0-1.2 1.6-1.5 2.5-.5.3.4-.2.3-1-.2s-1.2-.4-.7 0c1.2 1.3 4.7 1.6 4.7.4 0-.5-.4-.7-1-.4-.5.3-1 .2-1-.3 0-.6 1.1-.9 2.4-.8 1.8.1 2.2.4 1.4 1.4-.8.9-.7 1.1.6.6.9-.3 1.6-1 1.6-1.4 0-.4.7-1.1 1.6-1.4 1.5-.6 1.5-.4.3 1.1-1.3 1.6-1.2 1.7.4.4.9-.7 1.7-1 1.7-.6s.7.2 1.5-.5 1.5-.9 1.5-.4.5.1 1.1-.9c.5-.9.7-2.3.4-3-.4-.6 0-.4.7.5 1.5 1.8 5.5 1.8 5.1-.1-.2-.6.2-1.1.8-1.1.5 0 .7-.6.3-1.2-.5-.8 0-.7 1.1.2 1.7 1.4 1.8 1.3 1.2-.2-.4-1.2-.2-1.5.7-1.2.8.3 1.7.1 2-.4.3-.5 1.7-.8 3.1-.6 2.2.2 2.4 0 1.4-1.2s-.9-1.3.6-.8c1.2.5 1.6.4 1.1-.4-.7-1.2 4.7-4.5 5.8-3.5.3.4.6-.1.6-1.1s-.5-1.4-1.2-1c-.7.4-.8.3-.4-.5.4-.6 1.1-.9 1.6-.6.5.3 1.8-.7 2.9-2.1 1.2-1.5 2.1-2.2 2.1-1.7 0 .5-.9 1.8-2 2.8-1.1 1-1.8 2-1.6 2.3.3.2 1.6-.8 3-2.3 1.3-1.4 2.8-2.6 3.3-2.6.8.1.9-.3 1.2-3.7.1-1.5.3-1.5 1.2-.2.9 1.2 1 1.1.6-.7-.4-1.7-.1-2.1 1.4-1.8 1.7.3 1.8.1.8-1.7-1-1.9-.9-2 1-1.5 1.6.4 2 .2 1.3-.6-1.6-2.3 0-6 2.2-5.1 1.5.6 2.9-2.2 1.9-3.9-.4-.6 0-.8 1-.4.9.3 1.9.1 2.3-.5.4-.6.3-.8-.4-.4-.6.3-1.3.2-1.7-.4-.3-.5.2-1 1.2-1.1 1 0 1.3-.3.6-.6-.7-.2-1.3-.9-1.3-1.4 0-.6.5-.7 1-.4.6.3 1-.1 1-.9 0-.9-.5-1.6-1.2-1.6-.6 0-.8-.3-.5-.6.4-.4 1.4-.1 2.4.7.9.8 1.4.9 1 .2-.4-.6-.1-1.4.5-1.6.8-.3.6-.6-.4-.6-2-.1-2.4-1.6-.6-2.7.7-.5.8-.3.3.6-.5.9-.4 1.1.4.6.6-.4.9-1.2.5-1.7-.3-.5 0-1.7.8-2.6.9-1.2.9-1.5.1-.9-.7.4-1.3.2-1.3-.3 0-.6.8-1.1 1.7-1.1 1.5 0 1.4-.2-.3-1.6-1.6-1.3-1.6-1.5-.1-1 1.1.3 1.7 0 1.7-1 0-.9-.5-1.2-1.2-.8-1 .6-.9.3 0-.8.8-.9 2.1-1.4 3-1.2 1.5.5 1.5.4-.1-.6-.9-.6-2.2-.8-2.8-.4-.8.5-.8.1 0-1.3.6-1.1.8-2.3.5-2.6-.3-.3-.1-.8.5-1.1.5-.4 1.3-.1 1.7.5.4.7.3.9-.3.6-.5-.3-1 .1-1 .9 0 2.2 2-.1 2.2-2.6.1-1.4-.3-1.9-1.2-1.6-.7.3-1.3.1-1.3-.4 0-.6.8-1 1.8-1 1.3 0 1.4-.2.3-.9-1.1-.7-1.1-.9 0-1.4 1-.4 1-.6.2-.6-1.6-.1-1.7-3.1-.2-3.1.5 0 .7.5.3 1.2-.4.7-.3.8.4.4.6-.4.9-1.3.6-2.1-.4-.8-.9-1.3-1.3-1.1-.3.2-.6-.6-.6-1.9 0-1.3.3-2.1.8-1.8.4.2.7-.3.7-1.1s-.4-1.7-.9-2c-1.1-.7-.2-4.6 1.1-4.6.5 0 .6-.4.3-1-1.1-1.8-1.4-7.1-.4-6.4.6.3.8 1.3.4 2.2-.3.9-.3 1.3.2.9 1.1-1.2 1.2-6.7.1-6.7-.5 0-.7.4-.4.8.3.5-.1.9-.9.9-1.1 0-1.2-.4-.4-1.3.6-.7.7-1.9.3-2.6-.6-1-.5-1.1.7-.1 1.3 1 1.6 1 1.6-.2 0-1.4-1.1-1.9-3-1.6-.5.1-.6-.3-.2-.9.3-.5 1.8-.8 3.3-.5 2.6.5 2.6.5.4-.5-1.3-.5-2-1.4-1.7-2 .4-.6.9-2.2 1.1-3.7.4-2.3.3-2.5-1.1-1.3-.8.7-1.8 1-2.2.6-.3-.3-.1-.6.6-.6s1.1-.7.8-1.5c-.4-.8-.2-1.7.3-2 .6-.4 1-1.1 1-1.6 0-.6-.4-.8-.8-.5-.5.3-.9-.1-.9-.9s.4-1.2.9-.9c.4.3.8.2.9-.3 0-.4.2-1.9.5-3.2.4-2 .2-2.2-1-1.2-1.1.9-1.6.9-2.2 0-.5-.8-.3-.9.6-.4 1 .6 1.2.4.7-.9s-.3-1.7.5-1.3c1 .3 1.3-1 1.4-4.9 0-3.6-.3-5.1-1-4.4-.6.6-1.4 1-2 1-.5 0 .1-.9 1.4-2 2.1-1.8 1.6-2.6-1.3-2.1-.5.1-.5-.3-.2-.9.4-.6 1.3-.9 2.1-.6.7.3 1.6 0 2-.6.4-.6.3-.8-.3-.5-.6.4-1.7-.1-2.4-1-1-1.2-1-1.4-.1-.9.6.4 1.2.4 1.3-.1 0-.4.2-1.9.5-3.2.4-2 .2-2.2-1-1.2-1.1.9-1.6.9-2.2 0-.5-.8-.3-.9.6-.4 1 .6 1.2.4.7-.9s-.3-1.7.5-1.3c1 .3 1.3-1 1.4-4.9 0-3.6-.3-5.1-1-4.4-.6.6-1.4 1-2 1-.5 0 .1-.9 1.4-2 1.3-1.1 1.8-2 1.2-2-.7 0-.9-.7-.5-1.7s.2-1.4-.4-1c-.5.3-1 0-1-.8s.4-1.2.9-.9c.4.3.8.2.9-.3 0-.4.2-1.9.5-3.3l.4-2.5-2 2.4c-2.6 3-2.6 1.4 0-1.9 2.3-3 2.6-4.8.5-3-.9.7-1.8 1-2.2.6-.3-.3-.1-.6.6-.6s1.1-.7.8-1.5c-.4-.8-.2-1.7.3-2 .6-.4 1-1.1 1-1.6 0-.6-.4-.8-.8-.5-.5.3-.9-.1-.9-.9s.4-1.2.9-.9c.4.3.8.2.9-.3 0-.4.2-1.9.5-3.2.4-2 .2-2.2-1-1.2-1.1.9-1.6.9-2.2 0-.5-.8-.3-.9.6-.4 1 .6 1.2.4.7-.9s-.3-1.7.5-1.3c1 .3 1.3-1 1.4-4.9 0-3.6-.3-5.1-1-4.4-.6.6-1.4 1-2 1-.5 0 .1-.9 1.4-2 2.1-1.8 1.6-2.6-1.3-2.1-.5.1-.5-.3-.2-.9.4-.6 1.3-.9 2.1-.6.7.3 1.6 0 2-.6.4-.6.3-.8-.3-.5-.6.4-1.7-.1-2.4-1-1-1.2-1-1.4-.1-.9.6.4 1.2.4 1.3-.1 0-.4.2-1.9.5-3.2.4-2 .2-2.2-1-1.2-1.1.9-1.6.9-2.2 0-.5-.8-.3-.9.6-.4 1 .6 1.2.4.7-.9s-.3-1.7.5-1.3c1 .3 1.3-1 1.4-4.9 0-3.6-.3-5.1-1-4.4-.6.6-1.4 1-2 1-.5 0 .1-.9 1.4-2 1.3-1.1 1.8-2 1.2-2-.7 0-.9-.7-.5-1.7s.2-1.4-.4-1c-.5.3-1 0-1-.8s.4-1.2.9-.9c.4.3.8.2.9-.3 0-.4.2-1.9.5-3.3l.4-2.5-2 2.4c-2.6 3-2.6 1.4 0-1.9 2.3-3 2.6-4.8.5-3-.9.7-1.8 1-2.2.6-.3-.3-.1-.6.6-.6s1.1-.7.8-1.5c-.4-.8-.2-1.7.3-2 .6-.4 1-1.1 1-1.6 0-.6-.4-.8-.8-.5-.5.3-.9-.1-.9-.9s.4-1.2.9-.9c.4.3.8.2.9-.3 0-.4.2-1.9.5-3.2.4-2 .2-2.2-1-1.2-1.1.9-1.6.9-2.2 0-.5-.8-.3-.9.6-.4 1 .6 1.2.4.7-.9s-.3-1.7.5-1.3c1 .3 1.3-1 1.4-4.9 0-3.6-.3-5.1-1-4.4-.6.6-1.4 1-2 1-.5 0 .1-.9 1.4-2 2.1-1.8 1.6-2.6-1.3-2.1-.5.1-.5-.3-.2-.9.4-.6 1.3-.9 2.1-.6.7.3 1.6 0 2-.6.4-.6.3-.8-.3-.5-.6.4-1.7-.1-2.4-1-1-1.2-1-1.4-.1-.9.6.4 1.2.4 1.3-.1 0-.4.2-1.9.5-3.2.4-2 .2-2.2-1-1.2-1.1.9-1.6.9-2.2 0-.5-.8-.3-.9.6-.4 1 .6 1.2.4.7-.9s-.3-1.7.5-1.3c1 .3 1.3-1 1.4-4.9 0-3.6-.3-5.1-1-4.4-.6.6-1.4 1-2 1-.5 0 .1-.9 1.4-2 1.3-1.1 1.8-2 1.2-2-.7 0-.9-.7-.5-1.7s.2-1.4-.4-1c-.5.3-1 0-1-.8s.4-1.2.9-.9c.4.3.8.2.9-.3 0-.4.2-1.9.5-3.3l.4-2.5-2 2.4c-2.6 3-2.6 1.4 0-1.9 2.1-2.7 2.7-5.1.8-3.2-.7.7-1.6 1.2-2.2 1.2-.5 0 .1-.9 1.4-2 1.3-1.1 1.8-2 1.2-2-.7 0-.9-.7-.5-1.7s.2-1.4-.4-1c-.5.3-1 0-1-.8s.4-1.2.9-.9c.4.3.8.2.9-.3 0-.4.2-1.9.5-3.2.4-2 .2-2.2-1.1-1.1-.9.7-1.8 1-2.2.6-.3-.3-.1-.6.5-.6.7 0 1.2-.7 1.2-1.6 0-.8.4-1.3.8-1 .4.2.8-1.8.7-4.5 0-5.1-.7-6.1-2.4-3.2-.6 1-1.1 1.3-1.1.7 0-.6.3-1.4.8-1.8.7-.7.8-1.1 1.1-3.7 0-.5.6-.7 1.3-.3.7.4.8.3.4-.4s-1.8-1.2-3.2-1.2c-1.4 0-2.2-.4-1.9-1 .3-.6-.1-.7-.9-.4-.9.3-1.3 1.1-.9 1.7.4.6.1.7-.6.3-.7-.5-1-1.4-.7-2.2.3-.8.3-1.4 0-1.4-.2 0-.7.7-1 1.5zm8.1 225.5c-.3.5-1.2 1-1.8 1-.7 0-.6-.4.3-1 1.9-1.2 2.3-1.2 1.5 0zm-170.7 16.8c-.9 1-1.3 1.1-1.9 0-.7-1-.9-1-.9.1 0 .8-.3 1.2-.6.8-1-1 .4-2.3 2.5-2.3 1.5 0 1.7.3.9 1.4zm-10.1 34.7c0 .8-.4 1.2-.9.9-.5-.3-.6-1-.3-1.5.9-1.3 1.2-1.1 1.2.6zm6.3 17.1c0 .8-1.9 1.3-2.4.6-.3-.5.1-.9.9-.9s1.5.2 1.5.3zm75.4 11c.3.8.2 1.2-.4.9-.6-.3-1-1-1-1.6 0-1.4.7-1.1 1.4.7zm9.3.6c-.3.8-.6.5-.6-.6-.1-1.1.2-1.7.5-1.3.3.3.4 1.2.1 1.9zm38.7 29.6c.3.5-.1.9-.9.9s-1.2-.4-.9-.9c.3-.4.7-.8.9-.8.2 0 .6.4.9.8zm-7 2.6c-1 .8-2.1 1.2-2.4 1-.5-.6 2.1-2.4 3.4-2.4.6 0 .1.6-1 1.4z"/><path d="M247 40.4c0 .2.7.7 1.6 1 .8.3 1.2.2.9-.4-.6-1-2.5-1.4-2.5-.6zM247 56.4c0 .2.7.7 1.6 1 .8.3 1.2.2.9-.4-.6-1-2.5-1.4-2.5-.6zM247 72.4c0 .2.7.7 1.6 1 .8.3 1.2.2.9-.4-.6-1-2.5-1.4-2.5-.6zM247 88.4c0 .2.7.7 1.6 1 .8.3 1.2.2.9-.4-.6-1-2.5-1.4-2.5-.6zM247 104.4c0 .2.7.7 1.6 1 .8.3 1.2.2.9-.4-.6-1-2.5-1.4-2.5-.6zM247 120.4c0 .2.7.7 1.6 1 .8.3 1.2.2.9-.4-.6-1-2.5-1.4-2.5-.6zM247 136.4c0 .2.7.7 1.6 1 .8.3 1.2.2.9-.4-.6-1-2.5-1.4-2.5-.6zM247 152.4c0 .2.7.7 1.6 1 .8.3 1.2.2.9-.4-.6-1-2.5-1.4-2.5-.6zM247 168.4c0 .2.7.7 1.6 1 .8.3 1.2.2.9-.4-.6-1-2.5-1.4-2.5-.6zM247 184.4c0 .2.7.7 1.6 1 .8.3 1.2.2.9-.4-.6-1-2.5-1.4-2.5-.6zM247 200.4c0 .2.7.7 1.6 1 .8.3 1.2.2.9-.4-.6-1-2.5-1.4-2.5-.6zM247 216.4c0 .2.7.7 1.6 1 .8.3 1.2.2.9-.4-.6-1-2.5-1.4-2.5-.6zM247 232.4c0 .2.7.7 1.6 1 .8.3 1.2.2.9-.4-.6-1-2.5-1.4-2.5-.6zM247 248.4c0 .2.7.7 1.6 1 .8.3 1.2.2.9-.4-.6-1-2.5-1.4-2.5-.6zM107.4 278.8c.3.5 0 1.3-.6 1.5-.9.4-1 .6-.1.6 1.7.1 2.5-1.6 1.2-2.5-.7-.4-.9-.3-.5.4zM149.5 279.9c-.3.5-.2 1.2.3 1.5.5.3.9-.1.9-.9 0-1.7-.3-1.9-1.2-.6zM292.7 280.4c-.4 1-.1 1.3.8.9.8-.3 1.2-.9.9-1.4-.7-1.2-1.1-1.1-1.7.5zM247 292.1c0 .5.5.7 1 .4.6-.3 1-.8 1-1.1 0-.2-.4-.4-1-.4-.5 0-1 .5-1 1.1zM151.9 293.6c.6 1.2.7 2.4.4 2.8-.3.3-.1.6.5.6 1.6 0 1.5-1.2-.4-3.6-1.5-1.8-1.5-1.8-.5.2zM156 307.9c0 .6.4 1.3 1 1.6.6.3.7-.1.4-.9-.7-1.8-1.4-2.1-1.4-.7zM239 314c0 .5.4 1 .9 1 .6 0 1.3-.5 1.6-1 .3-.6-.1-1-.9-1-.9 0-1.6.4-1.6 1zM111 317.4c0 .2.7.7 1.6 1 .8.3 1.2.2.9-.4-.6-1-2.5-1.4-2.5-.6zM206 333.9c0 .6.4 1.3 1 1.6.6.3.7-.1.4-.9-.7-1.8-1.4-2.1-1.4-.7zM277.5 336c-.3.5-.1 1 .4 1 .6 0 1.1-.5 1.1-1 0-.6-.2-1-.4-1-.3 0-.8.4-1.1 1zM127.7 347.6c.7.3.9 1.3.6 2.2-.4 1.4-.3 1.4.5.2 1.2-1.6.7-3-1.1-2.9-.9 0-.9.2 0 .5zM142.7 361.1c.7.7 1.5 1 1.8.7.3-.3-.2-.9-1.2-1.2-1.4-.6-1.5-.5-.6.5zM159.3 369.5c0 .8.4 1.2.9.9.5-.3.6-1 .3-1.5-.9-1.3-1.2-1.1-1.2.6zM173 374c0 .5.5 1 1.1 1 .5 0 .7-.5.4-1-.3-.6-.8-1-1.1-1-.2 0-.4.4-.4 1zM193.5 376c-.3.5-.1 1 .4 1 .6 0 1.1-.5 1.1-1 0-.6-.2-1-.4-1-.3 0-.8.4-1.1 1z"/></svg>