<?xml version="1.0" standalone="no"?>
<!DOCTYPE svg PUBLIC "-//W3C//DTD SVG 20010904//EN"
 "http://www.w3.org/TR/2001/REC-SVG-20010904/DTD/svg10.dtd">
<svg version="1.0" xmlns="http://www.w3.org/2000/svg"
 width="420.000000pt" height="420.000000pt" viewBox="0 0 420.000000 420.000000"
 preserveAspectRatio="xMidYMid meet">
<metadata>
Created by potrace 1.11, written by Peter Selinger 2001-2013
</metadata>
<g transform="translate(0.000000,420.000000) scale(0.100000,-0.100000)"
fill="#000000" stroke="none">
<path d="M2854 3885 c-4 -8 -13 -15 -21 -15 -8 0 -12 4 -9 9 8 12 -25 8 -51
-7 -16 -9 -24 -9 -29 0 -4 6 -3 8 4 4 6 -3 13 -3 16 2 2 4 -4 9 -15 9 -11 1
-19 -5 -19 -14 0 -14 -3 -13 -25 1 -23 15 -27 15 -49 1 -18 -12 -26 -13 -32
-4 -5 8 -3 10 7 4 12 -7 12 -5 1 6 -11 12 -14 12 -22 -1 -8 -13 -13 -13 -30
-2 -16 10 -25 10 -35 2 -8 -7 -18 -9 -24 -6 -5 3 -11 -1 -15 -9 -3 -9 -12 -12
-23 -8 -17 7 -17 6 0 -11 10 -10 16 -25 13 -32 -3 -7 0 -16 6 -20 7 -4 2 -14
-13 -26 -13 -10 -18 -17 -10 -16 11 2 14 -11 15 -54 1 -31 5 -60 9 -64 4 -5
-2 -16 -15 -26 -13 -10 -17 -17 -9 -16 11 2 14 -11 15 -54 1 -31 5 -60 9 -64
4 -5 -2 -16 -15 -26 -13 -10 -17 -17 -9 -16 11 2 14 -11 15 -54 1 -31 5 -60 9
-64 4 -5 -2 -16 -15 -26 -13 -10 -17 -17 -9 -16 11 2 14 -11 15 -54 1 -31 5
-60 9 -64 4 -5 -2 -16 -15 -26 -13 -10 -17 -17 -9 -16 11 2 14 -11 15 -54 1
-31 5 -60 9 -64 4 -5 -2 -16 -15 -26 -13 -10 -17 -17 -9 -16 11 2 14 -11 15
-54 1 -31 5 -60 9 -64 4 -5 -2 -16 -15 -26 -13 -10 -17 -17 -9 -16 11 2 14
-11 15 -54 1 -31 5 -60 9 -64 4 -5 -2 -16 -15 -26 -13 -10 -17 -17 -9 -16 11
2 14 -11 15 -54 1 -31 5 -60 9 -64 4 -5 -2 -16 -15 -26 -13 -10 -17 -17 -9
-16 11 2 14 -11 15 -54 1 -31 5 -60 9 -64 4 -5 -2 -16 -15 -26 -13 -10 -17
-17 -9 -16 11 2 14 -11 15 -54 1 -31 5 -60 9 -64 4 -5 -2 -16 -15 -26 -13 -10
-17 -17 -9 -16 11 2 14 -11 15 -54 1 -31 5 -60 9 -64 4 -5 -2 -16 -15 -26 -13
-10 -17 -17 -9 -16 11 2 14 -11 15 -54 1 -31 5 -60 9 -64 4 -5 -2 -16 -15 -26
-13 -10 -17 -17 -9 -16 11 2 14 -11 15 -54 1 -31 5 -60 9 -64 4 -5 -2 -16 -15
-26 -13 -10 -17 -17 -9 -16 7 2 16 -3 18 -10 3 -6 -1 -10 -9 -9 -7 2 -10 2 -5
0 4 -3 4 -10 1 -15 -4 -7 -2 -8 4 -4 7 4 12 2 12 -3 0 -6 -8 -11 -17 -12 -15
0 -15 -2 -3 -7 8 -4 15 -18 15 -32 0 -14 5 -29 10 -33 6 -5 4 -7 -5 -4 -8 2
-14 11 -14 20 1 9 -2 14 -6 12 -12 -7 -8 -44 3 -42 5 1 12 -4 15 -12 3 -9 0
-11 -8 -6 -9 6 -9 2 1 -16 12 -23 11 -23 -7 -9 -18 14 -18 14 -1 -6 9 -11 17
-23 17 -27 0 -3 -8 -4 -17 -1 -17 5 -17 5 -1 -6 10 -6 15 -17 11 -27 -5 -12
-3 -14 7 -8 9 5 11 4 6 -4 -4 -6 -11 -9 -16 -6 -5 3 -12 0 -16 -6 -4 -8 -3 -9
4 -5 8 5 12 -3 12 -23 0 -16 3 -36 6 -45 3 -9 1 -16 -6 -16 -6 0 -9 4 -5 9 3
5 2 12 -3 15 -18 11 -8 -29 12 -46 13 -12 16 -17 6 -16 -8 2 -15 -3 -16 -9 -1
-7 -3 -16 -4 -20 -1 -5 -2 -12 -1 -16 1 -5 -3 -6 -9 -2 -8 5 -8 11 -1 19 8 9
7 13 -2 13 -7 0 -13 -12 -12 -28 0 -15 3 -25 7 -23 4 3 6 -5 5 -16 -1 -10 -7
-22 -15 -25 -10 -3 -10 -10 -2 -25 9 -17 7 -22 -15 -30 -22 -8 -24 -13 -15
-29 8 -16 6 -23 -11 -35 -12 -8 -18 -19 -15 -25 4 -6 -2 -8 -15 -6 -17 4 -19
2 -8 -11 10 -12 9 -13 -6 -8 -12 5 -16 4 -12 -3 4 -6 -2 -18 -13 -28 -11 -10
-18 -21 -15 -25 2 -4 -3 -7 -11 -7 -11 0 -9 6 7 23 16 17 18 24 7 30 -7 4 -10
4 -6 -1 10 -11 -11 -37 -23 -29 -5 3 -9 2 -8 -3 5 -27 -1 -35 -16 -23 -13 11
-14 10 -9 -4 3 -9 11 -16 17 -16 6 0 7 -3 4 -6 -4 -4 -13 -1 -22 6 -12 10 -16
9 -21 -4 -6 -15 -8 -15 -20 1 -13 17 -14 17 -7 -1 4 -13 3 -17 -5 -12 -6 3
-14 1 -18 -5 -4 -8 -3 -9 4 -5 7 4 12 2 12 -3 0 -15 -27 -14 -33 2 -3 6 -6 1
-7 -13 -1 -14 -4 -19 -7 -12 -4 10 -8 10 -19 1 -9 -7 -14 -8 -14 -1 0 6 -8 9
-17 7 -10 -2 -22 -4 -26 -4 -5 -1 -6 -5 -2 -10 3 -5 1 -12 -4 -15 -5 -4 -12
-2 -16 4 -3 5 -15 15 -27 21 -11 6 -18 7 -14 1 3 -5 -4 -18 -17 -28 -18 -16
-19 -16 -8 -1 8 10 9 17 3 17 -6 0 -16 -8 -22 -17 -11 -17 -11 -17 -6 0 4 12
2 17 -6 14 -7 -2 -22 3 -32 12 -11 9 -16 11 -13 4 4 -6 3 -14 -3 -18 -5 -3
-10 1 -10 10 0 9 -4 14 -10 10 -5 -3 -6 -13 -3 -23 4 -11 -2 -8 -16 8 -16 18
-24 21 -28 12 -4 -10 -8 -10 -19 -1 -7 6 -21 8 -30 5 -11 -4 -15 -2 -11 8 4
10 -1 13 -19 11 -13 -1 -27 2 -31 8 -3 6 -1 7 5 3 8 -5 10 -2 6 9 -6 14 -8 14
-20 -2 -13 -17 -14 -17 -20 5 -3 12 -11 22 -16 22 -5 0 -6 5 -2 12 4 7 3 8 -4
4 -7 -4 -20 -2 -29 3 -10 6 -14 11 -10 11 5 0 1 7 -7 16 -9 8 -13 20 -10 26 4
7 2 8 -5 4 -6 -4 -9 -11 -6 -16 3 -5 1 -11 -4 -15 -6 -3 -8 3 -6 13 4 22 -23
82 -38 82 -5 0 -2 -10 9 -22 l19 -23 -22 19 c-19 16 -21 22 -10 34 10 13 9 15
-3 10 -10 -4 -16 0 -17 11 -3 44 -8 61 -16 61 -5 0 -3 8 4 17 10 11 10 14 2 9
-9 -5 -13 0 -13 14 0 12 -4 19 -8 16 -8 -4 -12 22 -12 73 0 13 6 31 12 40 10
12 8 12 -8 -2 -20 -16 -21 -16 -19 3 1 11 4 22 8 26 3 4 0 13 -8 21 -11 10
-12 19 -5 33 13 24 13 33 0 25 -6 -3 -7 1 -4 9 3 9 11 13 18 10 6 -3 0 4 -13
15 -18 16 -20 21 -7 21 9 0 16 4 16 9 0 5 -8 8 -17 7 -11 0 -17 5 -15 14 1 9
-7 4 -19 -10 -11 -14 -18 -19 -14 -13 4 9 1 11 -9 7 -9 -3 -13 -11 -10 -18 3
-6 -4 0 -17 14 l-22 25 8 -25 c6 -20 5 -23 -6 -12 -16 15 -33 16 -23 0 4 -7 3
-8 -5 -4 -22 14 -63 14 -58 1 3 -6 -1 -12 -9 -12 -8 0 -14 7 -15 16 0 10 -2
12 -6 4 -2 -7 -9 -13 -14 -13 -6 0 -7 6 -3 13 5 7 1 7 -10 -2 -15 -13 -19 -13
-27 0 -7 11 -9 11 -9 0 0 -7 -6 -11 -14 -8 -10 4 -13 1 -10 -7 3 -8 0 -17 -7
-22 -8 -4 -10 -3 -5 4 9 15 1 15 -27 0 -21 -11 -21 -10 -7 7 13 17 13 18 0 10
-8 -6 -18 -10 -22 -10 -3 0 -10 -4 -15 -9 -5 -5 -3 -6 5 -2 6 4 12 3 12 -3 0
-5 -6 -11 -12 -14 -10 -3 -10 -9 0 -27 10 -16 10 -20 1 -14 -9 5 -10 2 -6 -9
4 -12 1 -17 -11 -17 -13 0 -12 -3 6 -16 22 -15 22 -34 -1 -34 -7 0 -6 4 3 10
8 5 10 10 4 10 -6 0 -17 -7 -24 -16 -8 -8 -9 -14 -4 -13 19 3 34 -1 34 -12 0
-5 -5 -7 -12 -3 -7 5 -8 3 -3 -6 4 -7 2 -15 -5 -20 -8 -5 -7 -9 5 -13 9 -4 13
-3 10 2 -3 5 -1 12 4 15 15 10 6 -23 -12 -44 -17 -21 -9 -28 10 -9 11 11 13
-5 13 -106 0 -34 4 -45 16 -45 7 0 16 -5 20 -12 4 -7 3 -8 -4 -4 -7 4 -12 1
-12 -8 0 -8 5 -18 10 -21 6 -3 10 -17 10 -31 0 -18 4 -23 13 -17 6 4 4 -6 -7
-21 -10 -16 -13 -25 -7 -22 6 4 14 0 17 -8 3 -9 14 -16 23 -17 12 0 12 -2 -4
-9 -19 -8 -19 -9 3 -9 12 -1 22 -6 22 -12 0 -5 -4 -7 -10 -4 -5 3 -10 -1 -10
-10 0 -9 4 -13 10 -10 6 3 10 -1 10 -10 0 -9 5 -13 11 -9 8 4 8 1 1 -13 -9
-15 -8 -20 3 -20 8 0 11 5 8 10 -3 6 -1 7 6 3 9 -6 9 -11 -1 -24 -10 -12 -10
-14 0 -8 6 4 12 3 12 -1 0 -5 7 -18 15 -29 15 -19 15 -19 9 1 -3 12 1 9 11 -7
8 -16 23 -28 33 -29 14 0 14 -2 -2 -8 -14 -5 -16 -10 -8 -15 7 -4 16 -4 22 -1
6 3 7 -1 4 -9 -5 -14 4 -20 27 -18 4 1 17 -11 30 -26 22 -25 22 -26 2 -8 -13
11 -23 14 -23 9 0 -6 7 -14 16 -17 8 -3 13 -10 10 -15 -3 -5 3 -7 14 -4 13 3
29 -5 50 -25 16 -17 30 -26 30 -22 0 5 10 -1 23 -13 13 -12 21 -26 19 -31 -3
-5 0 -6 7 -2 6 4 9 11 6 16 -4 7 24 6 33 0 1 -2 6 -3 12 -4 5 0 14 -6 21 -13
6 -6 19 -9 28 -6 14 4 14 3 1 -7 -13 -10 -11 -11 7 -7 16 4 20 1 16 -11 -5
-11 -3 -13 8 -6 20 12 39 14 39 3 0 -6 9 -5 21 2 15 8 19 8 15 0 -4 -6 0 -11
9 -11 10 0 14 -5 9 -12 -5 -10 -4 -10 6 -1 9 9 19 9 32 2 11 -6 24 -8 31 -6 7
2 18 -3 25 -12 11 -13 13 -13 9 -1 -4 12 5 15 42 13 25 -1 48 -3 51 -4 3 -1 9
-1 14 0 5 1 6 -6 2 -16 -4 -12 1 -9 14 7 11 14 18 18 15 9 -4 -10 0 -16 10
-16 9 0 14 6 11 14 -7 17 -1 16 19 -3 13 -14 19 -14 28 -4 9 10 9 11 -2 5 -9
-5 -12 -4 -8 3 4 5 16 8 27 5 11 -3 27 1 36 8 15 12 16 11 9 -10 -6 -21 -5
-22 8 -10 8 8 13 17 10 22 -2 4 3 7 12 7 9 0 13 -5 9 -11 -4 -7 -1 -10 7 -7 8
3 14 10 14 16 0 12 16 15 25 5 3 -4 -2 -3 -10 2 -8 5 -12 4 -7 0 12 -13 47
-16 47 -4 0 5 -4 7 -10 4 -5 -3 -10 -2 -10 3 0 6 11 9 24 8 18 -1 22 -4 14
-14 -8 -9 -7 -11 6 -6 9 3 16 10 16 14 0 4 7 11 16 14 15 6 15 4 3 -11 -13
-16 -12 -17 4 -4 9 7 17 10 17 6 0 -4 7 -2 15 5 8 7 15 9 15 4 0 -5 5 -1 11 9
5 9 7 23 4 30 -4 6 0 4 7 -5 15 -18 55 -18 51 1 -2 6 2 11 8 11 5 0 7 6 3 12
-5 8 0 7 11 -2 17 -14 18 -13 12 2 -4 12 -2 15 7 12 8 -3 17 -1 20 4 3 5 17 8
31 6 22 -2 24 0 14 12 -10 12 -9 13 6 8 12 -5 16 -4 11 4 -7 12 47 45 58 35 3
-4 6 1 6 11 0 10 -5 14 -12 10 -7 -4 -8 -3 -4 5 4 6 11 9 16 6 5 -3 18 7 29
21 12 15 21 22 21 17 0 -5 -9 -18 -20 -28 -11 -10 -18 -20 -16 -23 3 -2 16 8
30 23 13 14 28 26 33 26 8 -1 9 3 12 37 1 15 3 15 12 2 9 -12 10 -11 6 7 -4
17 -1 21 14 18 17 -3 18 -1 8 17 -10 19 -9 20 10 15 16 -4 20 -2 13 6 -16 23
0 60 22 51 15 -6 29 22 19 39 -4 6 0 8 10 4 9 -3 19 -1 23 5 4 6 3 8 -4 4 -6
-3 -13 -2 -17 4 -3 5 2 10 12 11 10 0 13 3 6 6 -7 2 -13 9 -13 14 0 6 5 7 10
4 6 -3 10 1 10 9 0 9 -5 16 -12 16 -6 0 -8 3 -5 6 4 4 14 1 24 -7 9 -8 14 -9
10 -2 -4 6 -1 14 5 16 8 3 6 6 -4 6 -20 1 -24 16 -6 27 7 5 8 3 3 -6 -5 -9 -4
-11 4 -6 6 4 9 12 5 17 -3 5 0 17 8 26 9 12 9 15 1 9 -7 -4 -13 -2 -13 3 0 6
8 11 17 11 15 0 14 2 -3 16 -16 13 -16 15 -1 10 11 -3 17 0 17 10 0 9 -5 12
-12 8 -10 -6 -9 -3 0 8 8 9 21 14 30 12 15 -5 15 -4 -1 6 -9 6 -22 8 -28 4 -8
-5 -8 -1 0 13 6 11 8 23 5 26 -3 3 -1 8 5 11 5 4 13 1 17 -5 4 -7 3 -9 -3 -6
-5 3 -10 -1 -10 -9 0 -22 20 1 22 26 1 14 -3 19 -12 16 -7 -3 -13 -1 -13 4 0
6 8 10 18 10 13 0 14 2 3 9 -11 7 -11 9 0 14 10 4 10 6 2 6 -16 1 -17 31 -2
31 5 0 7 -5 3 -12 -4 -7 -3 -8 4 -4 6 4 9 13 6 21 -4 8 -9 13 -13 11 -3 -2 -6
6 -6 19 0 13 3 21 8 18 4 -2 7 3 7 11 0 8 -4 17 -9 20 -11 7 -2 46 11 46 5 0
6 4 3 10 -11 18 -14 71 -4 64 6 -3 8 -13 4 -22 -3 -9 -3 -13 2 -9 11 12 12 67
1 67 -5 0 -7 -4 -4 -8 3 -5 -1 -9 -9 -9 -11 0 -12 4 -4 13 6 7 7 19 3 26 -6
10 -5 11 7 1 13 -10 16 -10 16 2 0 14 -11 19 -30 16 -5 -1 -6 3 -2 9 3 5 18 8
33 5 26 -5 26 -5 4 5 -13 5 -20 14 -17 20 4 6 9 22 11 37 4 23 3 25 -11 13 -8
-7 -18 -10 -22 -6 -3 3 -1 6 6 6 7 0 11 7 8 15 -4 8 -2 17 3 20 6 4 10 11 10
16 0 6 -4 8 -8 5 -5 -3 -9 1 -9 9 0 8 4 12 9 9 4 -3 8 -2 9 3 0 4 2 19 5 32 4
20 2 22 -10 12 -11 -9 -16 -9 -22 0 -5 8 -3 9 6 4 10 -6 12 -4 7 9 -5 13 -3
17 5 13 10 -3 13 10 14 49 0 36 -3 51 -10 44 -6 -6 -14 -10 -20 -10 -5 0 1 9
14 20 21 18 16 26 -13 21 -5 -1 -5 3 -2 9 4 6 13 9 21 6 7 -3 16 0 20 6 4 6 3
8 -3 5 -6 -4 -17 1 -24 10 -10 12 -10 14 -1 9 6 -4 12 -4 13 1 0 4 2 19 5 32
4 20 2 22 -10 12 -11 -9 -16 -9 -22 0 -5 8 -3 9 6 4 10 -6 12 -4 7 9 -5 13 -3
17 5 13 10 -3 13 10 14 49 0 36 -3 51 -10 44 -6 -6 -14 -10 -20 -10 -5 0 1 9
14 20 13 11 18 20 12 20 -7 0 -9 7 -5 17 4 10 2 14 -4 10 -5 -3 -10 0 -10 8 0
8 4 12 9 9 4 -3 8 -2 9 3 0 4 2 19 5 33 l4 25 -20 -24 c-26 -30 -26 -14 0 19
23 30 26 48 5 30 -9 -7 -18 -10 -22 -6 -3 3 -1 6 6 6 7 0 11 7 8 15 -4 8 -2
17 3 20 6 4 10 11 10 16 0 6 -4 8 -8 5 -5 -3 -9 1 -9 9 0 8 4 12 9 9 4 -3 8
-2 9 3 0 4 2 19 5 32 4 20 2 22 -10 12 -11 -9 -16 -9 -22 0 -5 8 -3 9 6 4 10
-6 12 -4 7 9 -5 13 -3 17 5 13 10 -3 13 10 14 49 0 36 -3 51 -10 44 -6 -6 -14
-10 -20 -10 -5 0 1 9 14 20 21 18 16 26 -13 21 -5 -1 -5 3 -2 9 4 6 13 9 21 6
7 -3 16 0 20 6 4 6 3 8 -3 5 -6 -4 -17 1 -24 10 -10 12 -10 14 -1 9 6 -4 12
-4 13 1 0 4 2 19 5 32 4 20 2 22 -10 12 -11 -9 -16 -9 -22 0 -5 8 -3 9 6 4 10
-6 12 -4 7 9 -5 13 -3 17 5 13 10 -3 13 10 14 49 0 36 -3 51 -10 44 -6 -6 -14
-10 -20 -10 -5 0 1 9 14 20 13 11 18 20 12 20 -7 0 -9 7 -5 17 4 10 2 14 -4
10 -5 -3 -10 0 -10 8 0 8 4 12 9 9 4 -3 8 -2 9 3 0 4 2 19 5 33 l4 25 -20 -24
c-26 -30 -26 -14 0 19 23 30 26 48 5 30 -9 -7 -18 -10 -22 -6 -3 3 -1 6 6 6 7
0 11 7 8 15 -4 8 -2 17 3 20 6 4 10 11 10 16 0 6 -4 8 -8 5 -5 -3 -9 1 -9 9 0
8 4 12 9 9 4 -3 8 -2 9 3 0 4 2 19 5 32 4 20 2 22 -10 12 -11 -9 -16 -9 -22 0
-5 8 -3 9 6 4 10 -6 12 -4 7 9 -5 13 -3 17 5 13 10 -3 13 10 14 49 0 36 -3 51
-10 44 -6 -6 -14 -10 -20 -10 -5 0 1 9 14 20 21 18 16 26 -13 21 -5 -1 -5 3
-2 9 4 6 13 9 21 6 7 -3 16 0 20 6 4 6 3 8 -3 5 -6 -4 -17 1 -24 10 -10 12
-10 14 -1 9 6 -4 12 -4 13 1 0 4 2 19 5 32 4 20 2 22 -10 12 -11 -9 -16 -9
-22 0 -5 8 -3 9 6 4 10 -6 12 -4 7 9 -5 13 -3 17 5 13 10 -3 13 10 14 49 0 36
-3 51 -10 44 -6 -6 -14 -10 -20 -10 -5 0 1 9 14 20 13 11 18 20 12 20 -7 0 -9
7 -5 17 4 10 2 14 -4 10 -5 -3 -10 0 -10 8 0 8 4 12 9 9 4 -3 8 -2 9 3 0 4 2
19 5 33 l4 25 -20 -24 c-26 -30 -26 -14 0 19 21 27 27 51 8 32 -7 -7 -16 -12
-22 -12 -5 0 1 9 14 20 13 11 18 20 12 20 -7 0 -9 7 -5 17 4 10 2 14 -4 10 -5
-3 -10 0 -10 8 0 8 4 12 9 9 4 -3 8 -2 9 3 0 4 2 19 5 32 4 20 2 22 -11 11 -9
-7 -18 -10 -22 -6 -3 3 -1 6 5 6 7 0 12 7 12 16 0 8 4 13 8 10 4 -2 8 18 7 45
0 51 -7 61 -24 32 -6 -10 -11 -13 -11 -7 0 6 3 14 8 18 7 7 8 11 11 37 0 5 6
7 13 3 7 -4 8 -3 4 4 -4 7 -18 12 -32 12 -14 0 -22 4 -19 10 3 6 -1 7 -9 4 -9
-3 -13 -11 -9 -17 4 -6 1 -7 -6 -3 -7 5 -10 14 -7 22 3 8 3 14 0 14 -2 0 -7
-7 -10 -15z m81 -2255 c-3 -5 -12 -10 -18 -10 -7 0 -6 4 3 10 19 12 23 12 15
0z m-1707 -168 c-9 -10 -13 -11 -19 0 -7 10 -9 10 -9 -1 0 -8 -3 -12 -6 -8
-10 10 4 23 25 23 15 0 17 -3 9 -14z m-101 -347 c0 -8 -4 -12 -9 -9 -5 3 -6
10 -3 15 9 13 12 11 12 -6z m63 -171 c0 -8 -19 -13 -24 -6 -3 5 1 9 9 9 8 0
15 -2 15 -3z m754 -110 c3 -8 2 -12 -4 -9 -6 3 -10 10 -10 16 0 14 7 11 14 -7z
m93 -6 c-3 -8 -6 -5 -6 6 -1 11 2 17 5 13 3 -3 4 -12 1 -19z m387 -296 c3 -5
-1 -9 -9 -9 -8 0 -12 4 -9 9 3 4 7 8 9 8 2 0 6 -4 9 -8z m-70 -26 c-10 -8 -21
-12 -24 -10 -5 6 21 24 34 24 6 0 1 -6 -10 -14z"/>
<path d="M2470 3796 c0 -2 7 -7 16 -10 8 -3 12 -2 9 4 -6 10 -25 14 -25 6z"/>
<path d="M2470 3636 c0 -2 7 -7 16 -10 8 -3 12 -2 9 4 -6 10 -25 14 -25 6z"/>
<path d="M2470 3476 c0 -2 7 -7 16 -10 8 -3 12 -2 9 4 -6 10 -25 14 -25 6z"/>
<path d="M2470 3316 c0 -2 7 -7 16 -10 8 -3 12 -2 9 4 -6 10 -25 14 -25 6z"/>
<path d="M2470 3156 c0 -2 7 -7 16 -10 8 -3 12 -2 9 4 -6 10 -25 14 -25 6z"/>
<path d="M2470 2996 c0 -2 7 -7 16 -10 8 -3 12 -2 9 4 -6 10 -25 14 -25 6z"/>
<path d="M2470 2836 c0 -2 7 -7 16 -10 8 -3 12 -2 9 4 -6 10 -25 14 -25 6z"/>
<path d="M2470 2676 c0 -2 7 -7 16 -10 8 -3 12 -2 9 4 -6 10 -25 14 -25 6z"/>
<path d="M2470 2516 c0 -2 7 -7 16 -10 8 -3 12 -2 9 4 -6 10 -25 14 -25 6z"/>
<path d="M2470 2356 c0 -2 7 -7 16 -10 8 -3 12 -2 9 4 -6 10 -25 14 -25 6z"/>
<path d="M2470 2196 c0 -2 7 -7 16 -10 8 -3 12 -2 9 4 -6 10 -25 14 -25 6z"/>
<path d="M2470 2036 c0 -2 7 -7 16 -10 8 -3 12 -2 9 4 -6 10 -25 14 -25 6z"/>
<path d="M2470 1876 c0 -2 7 -7 16 -10 8 -3 12 -2 9 4 -6 10 -25 14 -25 6z"/>
<path d="M2470 1716 c0 -2 7 -7 16 -10 8 -3 12 -2 9 4 -6 10 -25 14 -25 6z"/>
<path d="M1074 1412 c3 -5 0 -13 -6 -15 -9 -4 -10 -6 -1 -6 17 -1 25 16 12 25
-7 4 -9 3 -5 -4z"/>
<path d="M1495 1401 c-3 -5 -2 -12 3 -15 5 -3 9 1 9 9 0 17 -3 19 -12 6z"/>
<path d="M2927 1396 c-4 -10 -1 -13 8 -9 8 3 12 9 9 14 -7 12 -11 11 -17 -5z"/>
<path d="M2470 1279 c0 -5 5 -7 10 -4 6 3 10 8 10 11 0 2 -4 4 -10 4 -5 0 -10
-5 -10 -11z"/>
<path d="M1519 1264 c6 -12 7 -24 4 -28 -3 -3 -1 -6 5 -6 16 0 15 12 -4 36
-15 18 -15 18 -5 -2z"/>
<path d="M1560 1121 c0 -6 4 -13 10 -16 6 -3 7 1 4 9 -7 18 -14 21 -14 7z"/>
<path d="M2390 1060 c0 -5 4 -10 9 -10 6 0 13 5 16 10 3 6 -1 10 -9 10 -9 0
-16 -4 -16 -10z"/>
<path d="M1110 1026 c0 -2 7 -7 16 -10 8 -3 12 -2 9 4 -6 10 -25 14 -25 6z"/>
<path d="M2060 861 c0 -6 4 -13 10 -16 6 -3 7 1 4 9 -7 18 -14 21 -14 7z"/>
<path d="M2775 840 c-3 -5 -1 -10 4 -10 6 0 11 5 11 10 0 6 -2 10 -4 10 -3 0
-8 -4 -11 -10z"/>
<path d="M1277 724 c7 -3 9 -13 6 -22 -4 -14 -3 -14 5 -2 12 16 7 30 -11 29
-9 0 -9 -2 0 -5z"/>
<path d="M1427 589 c7 -7 15 -10 18 -7 3 3 -2 9 -12 12 -14 6 -15 5 -6 -5z"/>
<path d="M1593 505 c0 -8 4 -12 9 -9 5 3 6 10 3 15 -9 13 -12 11 -12 -6z"/>
<path d="M1730 460 c0 -5 5 -10 11 -10 5 0 7 5 4 10 -3 6 -8 10 -11 10 -2 0
-4 -4 -4 -10z"/>
<path d="M1935 440 c-3 -5 -1 -10 4 -10 6 0 11 5 11 10 0 6 -2 10 -4 10 -3 0
-8 -4 -11 -10z"/>
</g>
</svg>
